:SAMPLES-PER-SECOND 30
:FULLY-SPECIFIED
:DEGREES
686
root  -72.2915 39.8881 -6.78183 3.73624 85.4393 5.66241
RightUpLeg  -22.1222 -6.20284 -2.29648
RightLeg  7.90099 0.61138 0.761207
RightFoot  -7.90342 -0.235031 6.03252
RightToes  -4.65663e-010 0 -3.6325e-017
Spine  8.05617 -1.78973 -4.77228
Spine1  5.86801 -2.81018 2.76771
HEad  -24.9601 2.46006 1.98547
LeftShoulder1  -0.569003 4.96042 -32.8876
LeftArm  24.2031 -8.24567 -51.7713
LeftForeArm  14.967 -20.8359 -5.23718
LeftHand  -0.00936195 8.07955 1.39457
RightShoulder  -1.07404 -6.41165 30.3948
RightArm  16.8996 -12.0097 43.6163
RightForeArm  18.9655 9.9454 7.30156
RightHand  -0.117838 4.00974 -1.71753
LeftUpLeg  10.3502 8.7232 -0.969294
LeftLeg  9.07813 13.026 -0.325508
LeftFoot  -15.9337 0.0949992 -0.0190186
LeftToes  8.74931e-010 -1.05764e-010 1.2659e-011
687
root  -71.4756 39.7204 -6.71744 9.47977 85.8135 11.075
RightUpLeg  -22.1112 -6.55767 -2.36969
RightLeg  8.04643 -0.681459 0.654102
RightFoot  -7.87429 -0.23121 5.86308
RightToes  -4.65663e-010 0 -3.6325e-017
Spine  7.49252 -1.87985 -5.26088
Spine1  6.21389 -3.0907 3.46679
HEad  -24.8809 2.18871 1.32281
LeftShoulder1  -0.690661 5.24941 -33.4128
LeftArm  24.8857 -8.08063 -51.704
LeftForeArm  14.8315 -20.9689 -5.1809
LeftHand  0.00278839 7.96777 1.92063
RightShoulder  -1.04476 -6.34055 30.2818
RightArm  15.2738 -13.0558 43.3372
RightForeArm  20.2781 8.90584 7.05838
RightHand  -0.0870493 3.20605 -1.41262
LeftUpLeg  11.3194 8.66809 -1.10832
LeftLeg  9.26239 12.2833 -0.319335
LeftFoot  -16.909 0.0716441 -0.606201
LeftToes  8.74931e-010 -1.05764e-010 1.2659e-011
688
root  -70.5647 39.5295 -6.61252 15.3499 86.3631 16.6343
RightUpLeg  -21.6 -6.44615 -2.32639
RightLeg  8.4314 -0.955155 0.484449
RightFoot  -7.8788 -0.247183 6.25582
RightToes  -4.65663e-010 0 -3.6325e-017
Spine  7.07534 -1.99573 -5.15538
Spine1  6.14968 -3.20214 3.55044
HEad  -24.6276 1.16699 1.10756
LeftShoulder1  -0.683326 5.23197 -33.3764
LeftArm  24.5363 -6.99797 -51.4769
LeftForeArm  15.4414 -20.9896 -5.13126
LeftHand  -0.0225232 7.60633 0.935526
RightShoulder  -1.08082 -6.42413 30.4711
RightArm  13.9147 -14.5013 42.7988
RightForeArm  20.4194 8.75393 6.58026
RightHand  -0.0778722 3.9254 -1.24185
LeftUpLeg  12.5024 8.8851 -0.818901
LeftLeg  9.4385 10.9448 -0.47769
LeftFoot  -17.9157 0.023902 -1.4494
LeftToes  8.74931e-010 -1.05764e-010 1.2659e-011
689
root  -69.5732 39.3734 -6.45665 18.772 86.87 19.4912
RightUpLeg  -21.112 -6.23343 -1.83198
RightLeg  8.98476 0.174754 0.639834
RightFoot  -6.83789 -0.240589 5.41456
RightToes  -4.65663e-010 0 -3.6325e-017
Spine  6.34208 -1.95788 -5.1296
Spine1  6.113 -3.31877 4.35951
HEad  -24.216 0.548126 0.754519
LeftShoulder1  -0.708664 5.27833 -33.7695
LeftArm  24.0259 -5.8241 -50.7873
LeftForeArm  15.2605 -20.4339 -5.50741
LeftHand  -0.00983226 8.14419 1.39051
RightShoulder  -1.11078 -6.50255 30.5093
RightArm  13.2131 -15.5846 42.2047
RightForeArm  20.5242 8.78641 6.257
RightHand  -0.0412732 4.91611 -0.76194
LeftUpLeg  13.6865 9.15026 -0.206611
LeftLeg  9.24944 9.55821 -0.616922
LeftFoot  -18.4795 -0.0398693 -2.43616
LeftToes  8.74931e-010 -1.05764e-010 1.2659e-011
690
root  -68.5741 39.3767 -6.26881 6.15341 87.4499 6.41849
RightUpLeg  -21.0539 -5.25718 -0.543218
RightLeg  9.82754 1.4855 0.848105
RightFoot  -1.57685 -0.0862941 0.937396
RightToes  -4.65663e-010 0 -3.6325e-017
Spine  5.93464 -1.88681 -3.59811
Spine1  6.28528 -3.28869 4.70421
HEad  -24.5571 0.241372 0.990526
LeftShoulder1  -0.699932 5.25296 -33.8489
LeftArm  22.3647 -4.64497 -50.0254
LeftForeArm  16.9741 -19.176 -6.3192
LeftHand  0.0235622 8.16218 2.66447
RightShoulder  -1.1799 -6.66789 30.766
RightArm  13.3028 -16.0871 41.6613
RightForeArm  19.599 9.20499 6.16444
RightHand  0.00118716 4.81751 -0.303875
LeftUpLeg  15.3677 9.46895 1.35877
LeftLeg  8.27364 7.77499 -0.62052
LeftFoot  -18.0366 -0.13862 -4.21072
LeftToes  8.74931e-010 -1.05764e-010 1.2659e-011
691
root  -67.4756 39.2967 -6.03707 -14.1637 87.3834 -14.1016
RightUpLeg  -21.3407 -3.63105 0.686247
RightLeg  12.3053 1.32737 0.388995
RightFoot  3.36467 0.116653 -0.801977
RightToes  -4.65663e-010 0 -3.6325e-017
Spine  5.51629 -1.88711 -1.58836
Spine1  6.75298 -3.13643 4.227
HEad  -25.3225 -0.360275 0.894318
LeftShoulder1  -0.727244 5.3227 -33.8086
LeftArm  18.9832 -3.27687 -48.918
LeftForeArm  19.7585 -17.684 -7.20535
LeftHand  -0.000595208 8.00832 1.80469
RightShoulder  -1.23307 -6.784 31.0749
RightArm  13.3319 -14.8959 41.7723
RightForeArm  19.662 8.43593 6.34265
RightHand  -0.0410618 3.66341 -0.772165
LeftUpLeg  16.7536 10.4897 3.51633
LeftLeg  9.03843 5.53795 -0.508969
LeftFoot  -18.0459 -0.286344 -6.71152
LeftToes  8.74931e-010 -1.05764e-010 1.2659e-011
692
root  -66.3572 39.171 -5.80679 -24.6991 86.5791 -24.7375
RightUpLeg  -21.5316 -2.73354 1.75618
RightLeg  15.7233 1.2781 0.259775
RightFoot  2.997 0.0637484 -0.354774
RightToes  -4.65663e-010 0 -3.6325e-017
Spine  5.46172 -1.81423 0.15459
Spine1  6.54589 -2.8219 3.85581
HEad  -26.1972 0.102581 0.328755
LeftShoulder1  -0.737674 5.32914 -34.233
LeftArm  13.6593 -1.41806 -47.2876
LeftForeArm  24.0768 -15.5846 -8.22276
LeftHand  -0.0126022 8.29246 1.2296
RightShoulder  -1.15453 -6.60834 30.6671
RightArm  13.3279 -13.5798 42.3843
RightForeArm  20.9382 8.27924 6.4155
RightHand  0.00744504 3.5142 -0.166602
LeftUpLeg  17.4899 11.952 5.51907
LeftLeg  11.4733 3.13147 -0.105847
LeftFoot  -18.0438 -0.461406 -9.69455
LeftToes  8.74931e-010 -1.05764e-010 1.2659e-011
693
root  -65.2662 39.0815 -5.56932 -33.0054 85.7149 -32.7765
RightUpLeg  -21.1789 -2.01887 2.97706
RightLeg  19.0411 1.16848 0.236802
RightFoot  1.57297 0.257666 -2.18984
RightToes  -4.65663e-010 0 -3.6325e-017
Spine  5.82075 -1.82317 2.47088
Spine1  6.41907 -2.41106 3.19238
HEad  -25.8174 0.336687 -0.257682
LeftShoulder1  -0.624252 5.06236 -33.8892
LeftArm  8.76203 0.828069 -45.8194
LeftForeArm  27.6982 -13.2938 -9.13238
LeftHand  -0.00830933 8.75713 1.25993
RightShoulder  -1.16337 -6.609 30.9392
RightArm  13.4263 -11.8755 42.6939
RightForeArm  20.7888 8.32244 6.51904
RightHand  -0.0492591 2.75768 -0.901184
LeftUpLeg  17.4447 12.7628 7.42068
LeftLeg  15.8362 1.08124 0.442247
LeftFoot  -17.236 -0.597348 -13.5985
LeftToes  8.74931e-010 -1.05764e-010 1.2659e-011
694
root  -64.2481 39.0313 -5.31254 -47.2396 86.171 -46.898
RightUpLeg  -20.6348 -1.82159 3.69142
RightLeg  21.7408 -0.0372918 -0.239398
RightFoot  -0.488831 0.333327 -3.53599
RightToes  -4.65663e-010 0 -3.6325e-017
Spine  6.27927 -2.23525 3.84455
Spine1  5.97357 -2.56397 3.47052
HEad  -24.9372 -0.65865 -0.467733
LeftShoulder1  -0.585394 4.97447 -33.6472
LeftArm  5.35023 2.59346 -44.418
LeftForeArm  30.9528 -11.0401 -9.87767
LeftHand  0.00606985 9.71371 1.52455
RightShoulder  -1.18158 -6.66339 30.8736
RightArm  13.7882 -10.3286 43.201
RightForeArm  18.8986 9.04522 6.60136
RightHand  -0.1017 3.24843 -1.60821
LeftUpLeg  14.8831 10.2162 8.15241
LeftLeg  23.1621 0.793081 0.73463
LeftFoot  -14.473 -0.37397 -17.4526
LeftToes  8.74931e-010 -1.05764e-010 1.2659e-011
695
root  -63.2745 39.0284 -5.0672 -58.0092 86.356 -57.9472
RightUpLeg  -20.0202 -1.98875 4.2617
RightLeg  23.3977 -0.633642 -0.530426
RightFoot  -2.67624 0.297903 -4.15285
RightToes  -4.65663e-010 0 -3.6325e-017
Spine  6.02699 -2.17636 5.23976
Spine1  5.73577 -2.21599 3.51963
HEad  -24.0674 -1.60502 -0.391375
LeftShoulder1  -0.61621 5.0497 -33.7054
LeftArm  2.79818 3.65321 -43.1123
LeftForeArm  34.6412 -9.36845 -10.1545
LeftHand  -0.0380305 9.72277 0.391008
RightShoulder  -1.13819 -6.5845 30.4225
RightArm  14.2708 -9.48427 43.9223
RightForeArm  16.5371 11.2228 6.25841
RightHand  -0.0763301 3.44646 -1.25706
LeftUpLeg  10.2916 6.91424 8.13022
LeftLeg  32.2349 1.28466 1.25341
LeftFoot  -8.2325 0.514984 -18.4946
LeftToes  8.74931e-010 -1.05764e-010 1.2659e-011
